<?xml version="1.0" standalone="no"?>
<!DOCTYPE svg PUBLIC "-//W3C//DTD SVG 20010904//EN"
 "http://www.w3.org/TR/2001/REC-SVG-20010904/DTD/svg10.dtd">
<svg version="1.0" xmlns="http://www.w3.org/2000/svg"
 width="512.000000pt" height="512.000000pt" viewBox="0 0 512.000000 512.000000"
 preserveAspectRatio="xMidYMid meet">
<metadata>
Created by potrace 1.14, written by Peter Selinger 2001-2017
</metadata>
<g transform="translate(0.000000,512.000000) scale(0.100000,-0.100000)"
fill="#000000" stroke="none">
<path d="M1240 4758 c-140 -166 -284 -418 -348 -613 -161 -488 -107 -1015 180
-1735 27 -68 85 -208 128 -310 93 -220 200 -487 200 -499 0 -4 -37 -18 -82
-30 -111 -29 -249 -99 -331 -166 -259 -214 -341 -570 -195 -848 46 -87 156
-195 241 -237 l68 -33 1047 6 c576 4 1234 10 1463 14 l416 6 72 87 c175 209
284 395 337 575 37 122 39 317 6 440 -28 101 -112 272 -194 395 -35 52 -120
178 -189 280 -231 343 -323 567 -359 875 -20 179 -5 431 38 630 l17 80 115 -3
115 -4 88 54 c207 124 317 303 317 517 0 174 -64 349 -192 524 l-50 67 -1423
0 -1424 0 -61 -72z m2897 -132 c62 -93 106 -204 124 -308 32 -191 -59 -372
-241 -483 l-58 -35 -154 0 -155 0 -22 -101 c-91 -427 -85 -781 20 -1099 38
-117 127 -306 201 -425 31 -49 120 -182 198 -295 156 -225 249 -398 276 -513
25 -111 21 -252 -11 -362 -46 -157 -166 -359 -315 -533 l-35 -41 -1418 -12
c-1280 -10 -1420 -10 -1434 4 -26 25 -9 44 79 88 294 147 437 344 438 601 0
206 -66 435 -267 918 -240 575 -301 744 -362 993 -54 217 -72 359 -72 552 -1
402 118 741 371 1060 l60 75 1363 -2 1362 -3 52 -79z"/>
<path d="M1402 3584 c-26 -18 -28 -37 -6 -58 14 -14 109 -16 903 -16 676 0
890 3 899 12 18 18 14 56 -7 68 -13 7 -310 10 -893 10 -774 0 -876 -2 -896
-16z"/>
<path d="M1902 3228 c-7 -7 -12 -21 -12 -33 0 -12 5 -26 12 -33 17 -17 1459
-17 1476 0 18 18 14 56 -7 68 -30 15 -1453 14 -1469 -2z"/>
<path d="M1412 2828 c-18 -18 -14 -56 7 -68 13 -7 312 -10 900 -10 786 0 881
2 895 16 19 18 21 45 4 62 -17 17 -1789 17 -1806 0z"/>
<path d="M1582 2428 c-18 -18 -14 -56 7 -68 27 -14 805 -14 832 0 21 12 25 50
7 68 -17 17 -829 17 -846 0z"/>
<path d="M2640 2421 c-12 -24 -4 -48 21 -61 19 -11 778 -14 817 -4 26 8 39 48
22 69 -11 13 -73 15 -431 15 -403 0 -419 -1 -429 -19z"/>
<path d="M1888 2029 c-21 -12 -24 -49 -6 -67 9 -9 223 -12 899 -12 794 0 889
2 903 16 21 20 20 37 -2 57 -17 16 -93 17 -898 17 -578 -1 -885 -4 -896 -11z"/>
<path d="M2068 1669 c-24 -13 -23 -56 1 -69 27 -14 1765 -14 1792 0 25 14 25
56 0 70 -27 14 -1769 13 -1793 -1z"/>
<path d="M1982 1238 c-18 -18 -14 -56 7 -68 26 -13 830 -14 865 0 28 10 35 47
14 68 -17 17 -869 17 -886 0z"/>
<path d="M3068 1243 c-23 -6 -34 -49 -18 -68 11 -13 74 -15 444 -15 323 0 435
3 444 12 18 18 14 56 -7 68 -19 10 -825 13 -863 3z"/>
</g>
</svg>
